<?xml version="1.0" standalone="no"?>
<!DOCTYPE svg PUBLIC "-//W3C//DTD SVG 20010904//EN"
 "http://www.w3.org/TR/2001/REC-SVG-20010904/DTD/svg10.dtd">
<svg version="1.0" xmlns="http://www.w3.org/2000/svg"
 width="200.000000pt" height="300.000000pt" viewBox="0 0 200.000000 300.000000"
 preserveAspectRatio="xMidYMid meet">
<metadata>
Created by potrace 1.10, written by Peter Selinger 2001-2011
</metadata>
<g transform="translate(0.000000,300.000000) scale(0.100000,-0.100000)"
fill="#000000" stroke="none">
<path d="M980 2781 c0 -22 -5 -31 -17 -31 -9 0 -41 -12 -71 -27 -148 -72 -173
-271 -47 -381 20 -18 39 -32 43 -32 4 0 13 -4 20 -9 10 -6 8 -29 -12 -112 -13
-57 -27 -119 -31 -136 -6 -28 -11 -33 -36 -33 -24 0 -29 -4 -29 -25 0 -23 -4
-25 -45 -25 -43 0 -45 -2 -45 -28 0 -25 -3 -27 -40 -27 -33 0 -39 2 -35 16 4
11 -1 19 -12 23 -10 3 -23 15 -28 27 -13 28 -25 29 -39 4 -6 -11 -17 -24 -24
-28 -7 -5 -10 -16 -8 -25 5 -15 -5 -17 -109 -14 -108 4 -127 -1 -106 -23 5 -6
14 -27 21 -48 11 -34 16 -38 37 -34 19 3 27 -1 36 -20 8 -18 16 -23 32 -19 17
4 25 -1 34 -20 8 -18 17 -25 30 -21 14 3 29 -16 69 -90 54 -97 60 -113 41
-113 -5 0 -9 -8 -8 -17 2 -10 -3 -29 -10 -42 -16 -28 1 -76 23 -68 7 3 19 0
25 -6 6 -6 11 -7 11 -3 0 5 7 3 15 -4 8 -7 21 -10 29 -7 11 4 33 -25 77 -104
34 -61 65 -106 68 -100 10 15 37 -11 38 -37 1 -12 -2 -20 -8 -17 -5 4 -9 15
-9 26 0 10 -2 19 -5 19 -12 0 -43 -34 -39 -42 3 -5 0 -22 -6 -39 -15 -35 -2
-57 33 -55 12 1 27 -4 32 -12 8 -10 15 -9 33 8 l23 22 -20 18 c-21 18 -30 67
-10 55 6 -4 8 -13 5 -21 -3 -7 2 -17 10 -22 8 -5 16 -16 18 -26 1 -10 7 -21
12 -24 13 -9 16 -54 3 -46 -6 3 -8 12 -5 20 3 7 1 16 -5 20 -24 14 -19 -9 15
-71 27 -51 36 -79 36 -116 0 -37 -4 -49 -15 -49 -8 0 -21 -13 -30 -30 -17 -34
-5 -76 26 -85 19 -6 22 -41 6 -62 -6 -9 -6 -13 1 -13 5 0 10 -16 10 -35 0 -19
-5 -35 -10 -35 -7 0 -7 -4 -1 -12 6 -8 11 -102 11 -228 1 -288 0 -272 15 -264
8 5 8 2 -2 -9 -11 -15 -11 -17 2 -17 17 0 31 27 18 34 -5 3 -6 18 -3 32 4 21
2 25 -9 19 -11 -7 -12 -6 -3 6 16 19 15 351 0 342 -6 -4 -5 1 3 10 8 10 11 27
7 41 -3 14 -1 28 5 32 8 4 7 9 -2 14 -10 7 -10 12 0 23 8 11 9 17 1 22 -8 5
-8 10 0 20 8 10 8 15 0 20 -8 5 -8 11 -1 19 7 9 7 16 -1 24 -9 9 -8 12 4 12 9
0 25 11 36 25 25 31 17 75 -16 90 -18 8 -22 18 -22 53 0 57 57 174 82 166 9
-3 19 0 22 5 4 6 13 8 21 4 8 -3 15 0 15 6 0 6 9 11 20 11 22 0 41 31 23 37
-6 2 -9 13 -6 23 3 11 0 20 -6 20 -5 0 -8 6 -5 14 3 7 -2 16 -11 20 -15 5 -14
12 11 54 49 82 74 141 68 157 -3 8 -1 15 6 15 6 0 9 -4 6 -9 -3 -5 4 -11 16
-14 12 -4 25 -2 28 3 3 5 21 11 39 13 24 3 38 12 48 31 8 15 10 26 3 26 -5 0
-10 7 -10 15 0 8 -5 15 -11 15 -6 0 -8 7 -5 16 4 10 0 18 -13 21 -17 4 -13 16
41 119 33 64 57 118 54 122 -4 3 -11 0 -16 -8 -5 -8 -12 -11 -16 -7 -4 4 -1
13 8 20 8 6 22 27 29 44 8 18 18 34 24 37 14 5 37 -21 25 -29 -6 -3 -10 -1
-10 4 0 6 -4 11 -10 11 -5 0 -10 -9 -10 -20 0 -11 -4 -20 -10 -20 -5 0 -10 -7
-10 -15 0 -23 47 -19 60 6 7 12 18 18 26 15 8 -3 20 6 29 24 11 22 23 30 43
30 22 0 31 8 46 43 11 23 22 46 24 50 2 4 -50 7 -116 5 -89 -3 -119 -1 -115 8
2 7 -4 18 -14 25 -11 8 -22 22 -26 32 -9 24 -31 17 -35 -10 -2 -12 -12 -23
-23 -26 -12 -3 -17 -11 -13 -21 5 -13 -1 -15 -35 -13 -22 1 -42 7 -42 12 -1 6
-2 17 -3 25 -1 10 -14 16 -43 18 -38 3 -43 6 -43 28 0 20 -5 24 -30 24 -16 0
-30 4 -30 9 0 5 -9 62 -20 126 -11 64 -20 122 -20 129 0 7 19 26 43 43 24 16
51 46 60 66 10 20 22 39 27 42 19 12 11 64 -11 75 -37 21 -78 -37 -48 -67 17
-17 -24 -69 -71 -93 -22 -11 -41 -20 -43 -20 -2 0 -9 71 -16 158 -6 86 -14
171 -17 189 l-5 32 38 -15 c45 -19 85 -53 80 -68 -8 -20 14 -46 38 -46 23 0
45 24 45 49 0 16 -150 111 -176 111 -20 0 -24 5 -24 29 0 17 -4 33 -10 36 -6
4 -10 -7 -10 -24z m-6 -228 c-4 -87 -8 -173 -9 -190 0 -41 -17 -42 -70 -6 -57
38 -73 61 -85 120 -14 66 -2 115 42 166 28 32 88 65 122 67 5 0 5 -68 0 -157z
m194 66 c-2 -6 -8 -10 -13 -10 -5 0 -11 4 -13 10 -2 6 4 11 13 11 9 0 15 -5
13 -11z m18 -166 c-6 -14 -9 -15 -16 -4 -11 19 -1 46 13 32 5 -5 7 -18 3 -28z
m-176 -65 c0 -18 -2 -20 -9 -8 -6 8 -7 18 -5 22 9 14 14 9 14 -14z m15 -86
c-3 -4 -10 0 -14 7 -6 9 -11 10 -15 2 -4 -6 -19 -10 -34 -10 -24 2 -24 2 -4 6
12 2 22 9 22 14 0 5 6 16 13 23 10 12 14 10 25 -11 8 -14 11 -28 7 -31z m49
-121 c9 -52 16 -98 16 -103 0 -4 -46 -7 -102 -6 l-103 2 95 3 95 4 -15 95 -15
96 -58 -5 c-33 -3 -55 -1 -50 3 9 10 104 18 115 10 3 -3 13 -47 22 -99z m-47
65 c10 -9 32 -138 26 -148 -2 -5 -33 -8 -69 -8 -57 0 -65 2 -61 18 3 9 8 35
12 57 10 64 15 76 38 84 25 9 43 8 54 -3z m-103 -75 c-9 -40 -19 -70 -21 -67
-3 3 0 29 7 58 17 76 21 90 26 85 2 -2 -3 -36 -12 -76z m0 -117 c28 -11 18
-34 -13 -34 -24 0 -28 3 -24 20 6 21 12 24 37 14z m86 -16 c0 15 46 16 55 1
10 -15 2 -19 -46 -23 -53 -4 -69 1 -69 23 0 12 2 13 9 3 6 -11 10 -10 15 5 7
17 8 17 22 -1 8 -11 14 -14 14 -8z m83 2 c3 -11 1 -23 -4 -26 -5 -3 -9 6 -9
20 0 31 6 34 13 6z m-141 -52 c-16 -16 -15 -51 0 -66 10 -10 6 -12 -19 -10
-18 1 -35 8 -37 15 -7 18 -26 16 -26 -3 0 -9 -7 -14 -17 -12 -10 2 -18 9 -17
16 1 6 2 25 3 41 1 28 2 28 63 30 49 1 60 -1 50 -11z m198 -33 c0 -38 -3 -45
-20 -45 -11 0 -20 7 -20 15 0 18 -19 20 -26 2 -2 -7 -16 -14 -29 -15 -25 -2
-25 -1 -9 22 12 19 13 29 4 45 -10 20 -8 21 45 21 l55 0 0 -45z m-126 12 c8
-14 8 -20 -4 -27 -22 -14 -40 -12 -46 5 -16 41 27 60 50 22z m-434 -31 c0 -15
-7 -26 -21 -29 -16 -4 -18 -3 -9 8 7 8 9 18 6 24 -5 8 2 14 22 20 1 1 2 -10 2
-23z m213 -5 c-7 -27 -73 -26 -73 1 0 14 8 18 39 18 34 0 38 -3 34 -19z m437
-1 c0 -16 -7 -20 -30 -20 -23 0 -30 4 -30 20 0 16 7 20 30 20 23 0 30 -4 30
-20z m178 -4 c9 -21 8 -23 -9 -19 -10 3 -19 14 -19 24 0 26 15 24 28 -5z
m-1005 -71 c30 -62 31 -65 17 -65 -10 0 -42 57 -54 98 -14 42 10 22 37 -33z
m55 43 c-6 -18 -28 -21 -28 -4 0 9 7 16 16 16 9 0 14 -5 12 -12z m1076 4 c6
-10 -30 -43 -45 -39 -16 3 -159 -275 -153 -298 4 -15 3 -17 -4 -6 -8 11 -24
-12 -66 -95 -53 -104 -79 -153 -210 -396 -31 -59 -62 -110 -67 -113 -5 -4 -17
-1 -26 5 -16 9 -15 10 5 5 12 -4 22 -3 22 2 0 5 -36 71 -80 147 -44 77 -80
141 -80 142 0 1 -16 31 -36 66 -20 34 -75 133 -121 218 -155 282 -184 329
-199 323 -8 -3 -14 0 -14 7 0 6 5 8 10 5 6 -3 10 -3 10 2 0 4 230 6 512 3 481
-5 511 -4 516 13 5 18 17 23 26 9z m74 1 c-31 -69 -78 -140 -78 -118 0 16 62
125 71 125 6 0 9 -3 7 -7z m-1264 -28 c3 -8 1 -15 -4 -15 -6 0 -10 7 -10 15 0
8 2 15 4 15 2 0 6 -7 10 -15z m1194 -15 c-7 -10 -14 -17 -17 -15 -4 4 18 35
25 35 2 0 -1 -9 -8 -20z m-1100 -15 c-3 -3 -9 2 -12 12 -6 14 -5 15 5 6 7 -7
10 -15 7 -18z m42 -10 c0 -8 6 -14 13 -12 6 1 13 -5 13 -13 1 -8 2 -21 3 -28
0 -7 6 -10 11 -7 6 3 11 1 11 -4 1 -6 3 -15 4 -21 1 -5 3 -15 4 -21 0 -5 5 -8
10 -5 5 3 11 -1 15 -9 3 -8 2 -15 -3 -15 -11 0 -36 31 -44 53 -4 9 -11 17 -17
17 -5 0 -10 8 -10 19 0 10 -7 24 -15 31 -17 14 -20 30 -5 30 6 0 10 -7 10 -15z
m1034 -1 c4 -9 4 -19 1 -22 -3 -3 -5 0 -5 6 0 7 -10 12 -22 12 -19 0 -20 2 -8
10 21 14 27 12 34 -6z m-1034 -68 c0 -12 -14 5 -31 39 -8 16 -6 15 10 -4 12
-13 21 -28 21 -35z m940 -81 c-7 -8 -17 -15 -22 -15 -11 0 14 29 26 30 5 0 3
-7 -4 -15z m-830 -15 c0 -5 -4 -10 -10 -10 -5 0 -10 5 -10 10 0 6 5 10 10 10
6 0 10 -4 10 -10z m806 -25 c-8 -8 -18 -15 -22 -15 -3 0 -1 7 6 15 7 8 17 15
22 15 5 0 3 -7 -6 -15z m-794 -15 c12 -11 17 -20 11 -20 -5 0 -18 9 -28 20
-10 11 -15 20 -11 20 4 0 16 -9 28 -20z m778 -19 c0 -5 -7 -12 -16 -15 -14 -5
-15 -4 -4 9 14 17 20 19 20 6z m-750 -21 c8 -5 11 -12 8 -16 -4 -3 -14 1 -23
10 -18 17 -9 21 15 6z m10 -40 c0 -5 -4 -10 -10 -10 -5 0 -10 5 -10 10 0 6 5
10 10 10 6 0 10 -4 10 -10z m25 -20 c3 -5 1 -10 -4 -10 -6 0 -11 5 -11 10 0 6
2 10 4 10 3 0 8 -4 11 -10z m-19 -23 c8 3 14 0 14 -7 0 -6 -5 -8 -10 -5 -16
10 0 -48 16 -61 16 -13 18 -24 5 -24 -10 0 -51 84 -50 102 0 10 2 10 5 1 3 -7
12 -9 20 -6z m44 -43 c0 -14 -4 -23 -9 -20 -5 3 -8 17 -8 31 0 13 3 22 8 19 5
-3 9 -16 9 -30z m625 18 c-6 -4 -11 -14 -13 -22 -2 -8 -8 -16 -13 -18 -5 -2
-9 -12 -9 -22 0 -11 -9 -24 -20 -30 -24 -13 -26 -5 -5 17 8 8 13 19 10 24 -4
5 -2 9 4 9 5 0 13 10 17 23 7 23 25 40 33 31 3 -3 1 -8 -4 -12z m-690 -32 c21
-41 18 -50 -7 -20 -14 16 -19 19 -15 8 4 -10 2 -18 -3 -18 -11 0 -12 6 -4 38
8 29 10 28 29 -8z m702 -15 c-7 -13 -14 -20 -15 -14 -5 14 6 39 17 39 5 0 4
-11 -2 -25z m-612 5 c3 -5 1 -10 -4 -10 -6 0 -11 5 -11 10 0 6 2 10 4 10 3 0
8 -4 11 -10z m640 -29 c-14 -28 -35 -49 -35 -36 0 14 31 65 41 65 5 0 3 -13
-6 -29z m-620 -11 c3 -5 1 -10 -4 -10 -6 0 -11 5 -11 10 0 6 2 10 4 10 3 0 8
-4 11 -10z m639 -5 c-4 -8 -8 -15 -10 -15 -2 0 -4 7 -4 15 0 8 4 15 10 15 5 0
7 -7 4 -15z m-72 -2 c-6 -2 -9 -10 -6 -15 4 -7 2 -8 -5 -4 -13 9 -5 26 12 25
9 0 8 -2 -1 -6z m-562 -23 c0 -5 -2 -10 -4 -10 -3 0 -8 5 -11 10 -3 6 -1 10 4
10 6 0 11 -4 11 -10z m25 -20 c3 -5 1 -10 -4 -10 -6 0 -11 5 -11 10 0 6 2 10
4 10 3 0 8 -4 11 -10z m470 1 c3 -5 1 -12 -5 -16 -5 -3 -10 1 -10 9 0 18 6 21
15 7z m-465 -25 c0 -3 -4 -8 -10 -11 -5 -3 -10 -1 -10 4 0 6 5 11 10 11 6 0
10 -2 10 -4z m460 -11 c0 -2 -10 -10 -22 -16 -21 -11 -22 -11 -9 4 13 16 31
23 31 12z m-440 -15 c0 -5 -2 -10 -4 -10 -3 0 -8 5 -11 10 -3 6 -1 10 4 10 6
0 11 -4 11 -10z m420 -24 c0 -3 -4 -8 -10 -11 -5 -3 -10 -1 -10 4 0 6 5 11 10
11 6 0 10 -2 10 -4z m-390 -37 c0 -10 -4 -19 -9 -19 -5 0 -8 11 -8 25 0 13 3
22 8 19 5 -3 9 -14 9 -25z m25 -29 c3 -5 -1 -10 -10 -10 -9 0 -13 5 -10 10 3
6 8 10 10 10 2 0 7 -4 10 -10z m315 0 c0 -5 -5 -10 -11 -10 -5 0 -7 5 -4 10 3
6 8 10 11 10 2 0 4 -4 4 -10z m-17 -41 c-6 -6 -9 -17 -7 -24 3 -7 1 -16 -5
-20 -15 -9 -14 33 2 49 6 8 14 12 16 10 3 -2 0 -9 -6 -15z m-293 -60 c0 -6 -4
-7 -10 -4 -5 3 -10 11 -10 16 0 6 5 7 10 4 6 -3 10 -11 10 -16z m-7 -59 c-3
-3 -8 1 -11 9 -3 10 -6 10 -12 1 -5 -9 -9 -9 -14 -1 -4 6 -2 11 3 11 6 0 11 8
11 18 1 13 4 11 15 -8 7 -14 11 -27 8 -30z m267 42 c0 -4 -9 -13 -20 -20 -23
-14 -26 -8 -7 13 13 16 27 19 27 7z m44 -36 c-26 -40 -36 -31 -12 11 12 20 24
31 26 25 2 -6 -4 -22 -14 -36z m-34 4 c-6 -11 -13 -20 -16 -20 -2 0 0 9 6 20
6 11 13 20 16 20 2 0 0 -9 -6 -20z m60 -10 c0 -5 -5 -10 -11 -10 -5 0 -7 5 -4
10 3 6 8 10 11 10 2 0 4 -4 4 -10z m-90 -4 c0 -3 -4 -8 -10 -11 -5 -3 -10 -1
-10 4 0 6 5 11 10 11 6 0 10 -2 10 -4z m-30 -45 c0 -5 -7 -11 -14 -14 -10 -4
-13 -1 -9 9 6 15 23 19 23 5z m-30 -46 c-7 -9 -15 -13 -17 -11 -7 7 7 26 19
26 6 0 6 -6 -2 -15z m-21 -46 c-9 -17 -13 -19 -20 -8 -14 22 -11 29 11 29 18
0 19 -3 9 -21z m9 -173 c4 -17 -12 -35 -30 -36 -12 0 -29 40 -23 51 11 16 49
6 53 -15z m-18 -216 c0 -5 -4 -10 -10 -10 -5 0 -10 5 -10 10 0 6 5 10 10 10 6
0 10 -4 10 -10z"/>
<path d="M905 2480 c3 -5 8 -10 11 -10 2 0 4 5 4 10 0 6 -5 10 -11 10 -5 0 -7
-4 -4 -10z"/>
<path d="M960 2208 c0 -13 -3 -40 -6 -60 l-7 -38 47 0 c40 0 47 3 42 18 -2 9
-8 36 -11 60 -6 38 -9 42 -36 42 -23 0 -29 -4 -29 -22z m50 -7 c0 -5 3 -22 6
-38 5 -27 3 -31 -20 -35 -24 -5 -26 -3 -26 32 0 20 3 40 7 43 9 10 33 9 33 -2z"/>
<path d="M553 1847 c-2 -4 11 -33 30 -65 19 -31 65 -113 102 -182 37 -69 80
-145 95 -170 15 -25 53 -94 85 -155 32 -60 60 -104 63 -97 2 7 -3 23 -11 36
-11 16 -13 26 -5 34 13 13 1 33 -19 30 -9 -2 -18 3 -20 10 -3 8 7 12 32 12
l37 0 -3 -73 c-3 -65 0 -79 28 -132 17 -33 35 -61 40 -62 5 -2 22 24 38 58 26
53 29 70 26 130 l-3 69 37 0 c21 0 34 -4 30 -10 -3 -5 -13 -10 -22 -10 -10 0
-13 -6 -9 -16 3 -8 -1 -29 -10 -46 -8 -16 -13 -32 -10 -35 2 -3 12 10 22 29
146 282 257 493 296 566 22 41 38 76 36 78 -8 7 -880 9 -885 1z m65 -21 c-10
-7 -18 -19 -18 -27 -1 -10 -5 -8 -15 5 -22 29 -19 36 18 36 29 -1 30 -2 15
-14z m122 4 c0 -5 -2 -10 -4 -10 -3 0 -8 5 -11 10 -3 6 -1 10 4 10 6 0 11 -4
11 -10z m5 -32 c-14 -24 -36 -62 -48 -86 -21 -41 -36 -49 -45 -22 -3 7 0 10 6
6 9 -5 68 83 60 89 -24 20 -47 23 -66 9 -12 -8 -22 -19 -22 -24 0 -14 31 -41
41 -35 5 4 9 2 9 -4 0 -20 -20 -21 -40 -1 -24 24 -26 47 -3 72 20 22 51 23 73
3 15 -14 18 -13 30 10 7 14 17 25 22 25 5 0 -3 -19 -17 -42z m145 2 c58 0 72
-4 89 -22 18 -19 21 -19 27 -5 5 13 20 17 68 17 68 0 81 6 89 35 2 11 5 -19 6
-67 1 -82 0 -88 -19 -88 -11 0 -20 -4 -20 -10 0 -5 -24 -10 -54 -10 -45 0 -54
3 -59 20 -3 11 -13 20 -22 20 -9 0 -19 -9 -22 -20 -5 -17 -14 -20 -69 -20 -50
0 -64 3 -64 15 0 8 -7 15 -15 15 -12 0 -15 15 -14 83 1 45 4 72 6 60 4 -21 10
-23 73 -23z m392 3 c21 29 70 19 82 -16 8 -23 6 -31 -12 -49 -12 -12 -25 -18
-29 -14 -4 4 0 12 10 17 23 13 22 46 -2 58 -14 8 -24 6 -38 -7 -20 -17 -20
-17 6 -60 21 -33 30 -39 39 -30 9 9 12 9 12 0 0 -7 -4 -12 -10 -12 -5 0 -10
-8 -10 -17 0 -9 -25 22 -55 70 -58 91 -71 122 -31 72 23 -28 25 -29 38 -12z
m-12 27 c0 -5 -4 -10 -10 -10 -5 0 -10 5 -10 10 0 6 5 10 10 10 6 0 10 -4 10
-10z m132 2 c12 -5 15 -11 9 -21 -8 -12 -12 -12 -25 2 -26 26 -20 33 16 19z
m-610 -24 c-7 -7 -12 -40 -12 -76 0 -64 0 -64 -26 -59 -16 3 -28 0 -31 -9 -3
-8 -13 -14 -24 -14 -15 0 -11 12 27 76 46 79 66 105 73 98 3 -2 -1 -10 -7 -16z
m288 15 c-30 -2 -59 -8 -64 -14 -14 -13 -23 -11 -23 5 0 10 18 13 71 13 62 0
64 -1 16 -4z m230 -168 c0 -3 -11 -5 -25 -5 -14 0 -25 5 -25 10 0 6 -13 10
-30 10 l-30 0 0 77 0 78 55 -82 c30 -46 55 -85 55 -88z m-622 117 c2 -7 -3
-12 -12 -12 -9 0 -16 7 -16 16 0 17 22 14 28 -4z m635 -15 c-3 -5 -10 -4 -15
1 -6 6 -7 16 -3 22 6 9 9 9 16 -1 4 -7 5 -17 2 -22z m-553 -128 c-7 -11 -17
-18 -24 -16 -7 3 -19 1 -27 -4 -12 -8 -12 -10 0 -18 7 -5 11 -15 9 -22 -3 -8
-14 3 -26 28 l-22 42 48 4 c26 2 48 4 50 5 1 1 -2 -7 -8 -19z m220 -24 c0 -25
-4 -35 -16 -35 -29 0 -84 -65 -84 -100 0 -53 42 -109 83 -110 11 0 17 -8 17
-24 0 -14 5 -28 10 -31 6 -4 10 5 10 20 0 17 7 28 23 34 43 17 70 57 70 106 0
50 -17 76 -64 95 -32 13 -31 13 -34 51 l-2 26 92 1 91 2 38 -51 39 -50 -18
-39 c-10 -22 -23 -40 -30 -40 -13 0 -53 -83 -57 -120 -3 -22 -8 -25 -50 -28
l-48 -3 -1 -52 c0 -29 -3 -68 -7 -87 -7 -33 -9 -35 -49 -35 -39 0 -42 2 -45
31 -2 17 1 31 7 30 5 -1 11 4 12 9 1 6 -5 9 -14 7 -11 -3 -14 1 -9 13 3 9 3
34 0 56 l-7 39 -48 0 c-48 0 -54 5 -50 37 2 17 -50 106 -57 98 -3 -3 -18 16
-33 41 l-27 47 31 48 32 49 98 0 97 0 0 -35z m320 26 c0 -15 -34 -71 -43 -71
-5 0 -5 14 -2 31 7 29 5 31 -14 26 -11 -3 -25 1 -32 9 -10 12 -3 14 40 14 28
0 51 -4 51 -9z m-249 -110 c44 -44 35 -102 -22 -135 -25 -15 -35 -16 -65 -6
-46 16 -68 50 -60 95 14 73 94 98 147 46z m-21 -406 c0 -4 -7 -20 -16 -37 -12
-24 -18 -28 -25 -17 -6 9 -4 15 6 17 8 2 15 10 15 18 0 17 -27 19 -32 2 -3 -7
-7 -6 -11 5 -5 14 0 17 28 17 19 0 35 -2 35 -5z"/>
<path d="M797 1593 c-12 -11 -8 -23 8 -23 8 0 15 7 15 15 0 16 -12 20 -23 8z"/>
<path d="M1157 1583 c-12 -11 -8 -23 8 -23 8 0 15 7 15 15 0 16 -12 20 -23 8z"/>
<path d="M767 1553 c-12 -11 -8 -23 8 -23 8 0 15 7 15 15 0 16 -12 20 -23 8z"/>
<path d="M825 1551 c-7 -12 12 -24 25 -16 11 7 4 25 -10 25 -5 0 -11 -4 -15
-9z"/>
<path d="M1120 1534 c0 -17 22 -14 28 4 2 7 -3 12 -12 12 -9 0 -16 -7 -16 -16z"/>
<path d="M1180 1535 c0 -8 7 -15 15 -15 8 0 15 7 15 15 0 8 -7 15 -15 15 -8 0
-15 -7 -15 -15z"/>
<path d="M790 1505 c0 -8 7 -15 15 -15 8 0 15 7 15 15 0 8 -7 15 -15 15 -8 0
-15 -7 -15 -15z"/>
<path d="M1142 1498 c5 -15 28 -18 29 -3 0 6 -7 12 -17 13 -10 3 -15 -1 -12
-10z"/>
<path d="M990 1235 c0 -8 5 -15 10 -15 6 0 10 7 10 15 0 8 -4 15 -10 15 -5 0
-10 -7 -10 -15z"/>
<path d="M1020 1205 c0 -9 5 -15 11 -13 6 2 11 8 11 13 0 5 -5 11 -11 13 -6 2
-11 -4 -11 -13z"/>
<path d="M996 1181 c-4 -7 -5 -15 -2 -18 9 -9 19 4 14 18 -4 11 -6 11 -12 0z"/>
<path d="M952 1507 c-40 -43 -23 -102 33 -113 40 -8 85 26 85 65 0 63 -76 93
-118 48z m72 -9 c-3 -4 2 -8 10 -8 19 0 22 -50 4 -68 -14 -14 -62 -17 -54 -3
3 5 -2 8 -12 7 -23 -1 -28 46 -7 68 16 15 68 19 59 4z"/>
<path d="M1475 2481 c-3 -5 -1 -12 5 -16 5 -3 10 1 10 9 0 18 -6 21 -15 7z"/>
<path d="M1265 2380 c-3 -5 -1 -10 4 -10 6 0 11 5 11 10 0 6 -2 10 -4 10 -3 0
-8 -4 -11 -10z"/>
<path d="M80 2020 c0 -5 5 -10 10 -10 6 0 10 5 10 10 0 6 -4 10 -10 10 -5 0
-10 -4 -10 -10z"/>
<path d="M1480 716 c0 -20 19 -31 32 -18 7 7 3 14 -11 21 -17 10 -21 9 -21 -3z"/>
</g>
</svg>
